<svg width="389" height="584" viewBox="0 0 389 584" fill="none" xmlns="http://www.w3.org/2000/svg">
<g clip-path="url(#clip0)">
<path d="M48.7129 292.439C75.6163 292.439 97.4259 270.618 97.4259 243.699C97.4259 216.781 75.6163 194.959 48.7129 194.959C21.8095 194.959 0 216.781 0 243.699C0 270.618 21.8095 292.439 48.7129 292.439Z" fill="#820000"/>
<path d="M48.7129 389.919C75.6163 389.919 97.4259 368.098 97.4259 341.179C97.4259 314.261 75.6163 292.439 48.7129 292.439C21.8095 292.439 0 314.261 0 341.179C0 368.098 21.8095 389.919 48.7129 389.919Z" fill="#BA131A"/>
<path d="M146.139 292.439C173.042 292.439 194.852 270.618 194.852 243.699C194.852 216.781 173.042 194.959 146.139 194.959C119.235 194.959 97.4258 216.781 97.4258 243.699C97.4258 270.618 119.235 292.439 146.139 292.439Z" fill="#94070A"/>
<path d="M194.676 389.743H138.049C115.539 389.743 97.4258 371.62 97.4258 349.097V333.085C97.4258 310.563 115.539 292.439 138.049 292.439H154.052C176.562 292.439 194.676 310.563 194.676 333.085V389.743Z" fill="#ED1C24"/>
<path d="M194.679 584.07H389.003V389.638H194.679L194.679 584.07Z" fill="#D1D3D4"/>
<path d="M389 562.357L292.629 475.259L194.676 562.357V584H389V562.357Z" fill="white"/>
<path d="M389 584L291.926 495.318L194.676 584H389Z" fill="#77787B"/>
<path d="M194.676 562.357L389 389.568H194.676V562.357Z" fill="#BA131A"/>
<path d="M97.9534 390.271C151.415 390.271 194.852 433.557 194.852 487.224V584.176H97.9534C44.4923 584.176 1.05513 540.89 1.05513 487.224L0.527557 390.271H97.9534Z" fill="#77787B"/>
<path d="M138.225 471.036C169.352 471.036 194.676 496.374 194.676 527.518V584H138.225C107.098 584 81.7744 558.662 81.7744 527.518C81.7744 496.374 107.098 471.036 138.225 471.036Z" fill="#ED1C24"/>
<path d="M93.9087 529.629C123.532 529.629 147.546 505.602 147.546 475.963C147.546 446.323 123.532 422.296 93.9087 422.296C64.2858 422.296 40.2717 446.323 40.2717 475.963C40.2717 505.602 64.2858 529.629 93.9087 529.629Z" fill="white"/>
<path d="M93.9087 510.274C112.848 510.274 128.201 494.912 128.201 475.962C128.201 457.013 112.848 441.651 93.9087 441.651C74.9695 441.651 59.6162 457.013 59.6162 475.962C59.6162 494.912 74.9695 510.274 93.9087 510.274Z" fill="#77787B"/>
<path d="M100.064 194.96C153.871 194.96 197.49 151.317 197.49 97.48C197.49 43.6433 153.871 0 100.064 0C46.2569 0 2.63788 43.6433 2.63788 97.48C2.63788 151.317 46.2569 194.96 100.064 194.96Z" fill="#77787B"/>
<path d="M100.064 172.614C141.536 172.614 175.156 138.975 175.156 97.4802C175.156 55.9851 141.536 22.3467 100.064 22.3467C58.5917 22.3467 24.972 55.9851 24.972 97.4802C24.972 138.975 58.5917 172.614 100.064 172.614Z" fill="#ED1C24"/>
<path d="M100.064 141.293C124.248 141.293 143.853 121.678 143.853 97.4802C143.853 73.2828 124.248 53.667 100.064 53.667C75.8798 53.667 56.2748 73.2828 56.2748 97.4802C56.2748 121.678 75.8798 141.293 100.064 141.293Z" fill="white"/>
<path d="M88.1053 194.96C88.1053 134.431 137.17 85.3389 197.665 85.3389V194.96H88.1053Z" fill="#BA131A"/>
</g>
<defs>
<clipPath id="clip0">
<rect width="389" height="584" fill="white"/>
</clipPath>
</defs>
</svg>
