<svg xmlns="http://www.w3.org/2000/svg" width="208" height="270" fill="none" xmlns:v="https://vecta.io/nano"><path d="M104.069 222.068c48.046 0 86.995-38.951 86.995-86.999s-38.949-86.998-86.995-86.998-86.995 38.951-86.995 86.998 38.949 86.999 86.995 86.999z" fill="#d1d3d4"/><path d="M107.394 270s102.787-4.572 100.571-144.628c-.139 0-94.614 13.715-100.571 144.628z" fill="#ed1c24"/><path d="M100.606 270S-2.181 265.428.035 125.372c0 0 94.476 13.715 100.571 144.628z" fill="#ba131a"/><path d="M107.394 144.628S210.181 140.056 207.965 0c-.139 0-94.614 13.715-100.571 144.628z" fill="#ed1c24"/><path d="M100.606 144.628S-2.181 140.057.035 0c0 0 94.476 13.715 100.571 144.628z" fill="#ba131a"/></svg>