<svg xmlns="http://www.w3.org/2000/svg" xmlns:xlink="http://www.w3.org/1999/xlink" width="377" height="1098" fill="none" xmlns:v="https://vecta.io/nano"><use xlink:href="#B" fill="#820000"/><path d="M94.2 753.9c52.025 0 94.2-42.175 94.2-94.2s-42.175-94.2-94.2-94.2S0 607.675 0 659.7s42.175 94.2 94.2 94.2z" fill="#ba131a"/><use xlink:href="#B" y="-188.4" fill="#94070a"/><path d="M.1 377.1v165.2a23.05 23.05 0 0 0 23.1 23.1h142.1a23.05 23.05 0 0 0 23.1-23.1V400.2a23.05 23.05 0 0 0-23.1-23.1H.1z" fill="#ed1c24"/><path d="M376.5 188c0-103.8-84.2-188-188-188H.4v188c0 103.8 84.2 188 188 188l188 1.1V188h.1z" fill="#77787b"/><path d="M297.6 188c0-60.3-48.9-109.2-109.2-109.2H79.2V188c0 60.3 48.9 109.2 109.2 109.2S297.6 248.3 297.6 188z" fill="#fff"/><path d="M158.1 267.9c0 60.3 48.9 109.2 109.2 109.2h109.2V267.9c0-60.3-48.9-109.2-109.2-109.2-60.4.1-109.2 48.9-109.2 109.2z" fill="#ed1c24"/><path d="M188.1 1097.1c99.135 0 179.5-80.36 179.5-179.5s-80.365-179.5-179.5-179.5S8.6 818.465 8.6 917.6s80.365 179.5 179.5 179.5z" fill="#d1d3d4"/><path d="M188.1 1055.9c76.381 0 138.3-61.919 138.3-138.3s-61.919-138.3-138.3-138.3S49.8 841.219 49.8 917.6s61.919 138.3 138.3 138.3z" fill="#ed1c24"/><path d="M188.1 998.3c44.569 0 80.7-36.131 80.7-80.7s-36.131-80.7-80.7-80.7-80.7 36.131-80.7 80.7 36.131 80.7 80.7 80.7z" fill="#fff"/><defs ><path id="B" d="M282.7 753.9c52.025 0 94.2-42.175 94.2-94.2s-42.175-94.2-94.2-94.2-94.2 42.175-94.2 94.2 42.175 94.2 94.2 94.2z"/></defs></svg>