<svg xmlns="http://www.w3.org/2000/svg" width="150" height="497" fill="none" xmlns:v="https://vecta.io/nano"><g fill="#820000"><path d="M112.5 496.7c20.655 0 37.4-16.745 37.4-37.4s-16.745-37.4-37.4-37.4-37.4 16.744-37.4 37.4 16.745 37.4 37.4 37.4z"/><path d="M112.5 421.9c20.655 0 37.4-16.745 37.4-37.4s-16.745-37.4-37.4-37.4-37.4 16.745-37.4 37.4 16.745 37.4 37.4 37.4z"/></g><path d="M37.6 496.7c20.655 0 37.4-16.745 37.4-37.4s-16.745-37.4-37.4-37.4S.2 438.644.2 459.3s16.745 37.4 37.4 37.4z" fill="#ba131a"/><path d="M.2 347.1v37.4c0 20.7 16.8 37.4 37.4 37.4 20.7 0 37.4-16.8 37.4-37.4 0-20.7-16.8-37.4-37.4-37.4H.2z" fill="#ed1c24"/><path d="M.071 197.206v149.9h149.9v-149.9H.071z" fill="#d1d3d4"/><path d="M16.7 347.1l67.2-74.3-67.2-75.6H0v149.9h16.7z" fill="#fff"/><path d="M0 347.1l68.4-75L0 197.2v149.9z" fill="#77787b"/><path d="M16.7 197.2L149.9 347.1V197.2H16.7Z" fill="#ba131a"/><path d="M75.1 160.3c34.683 0 62.8-28.117 62.8-62.8s-28.117-62.8-62.8-62.8-62.8 28.116-62.8 62.8 28.117 62.8 62.8 62.8z" fill="#d1d3d4"/><path d="M77.5 194.9s74.2-3.3 72.6-104.4c-.1 0-68.3 9.9-72.6 104.4z" fill="#ed1c24"/><path d="M72.6 194.9S-1.6 191.6 0 90.5c0 0 68.2 9.9 72.6 104.4z" fill="#ba131a"/><path d="M77.5 104.4s74.2-3.3 72.6-104.4c-.1 0-68.3 9.9-72.6 104.4z" fill="#ed1c24"/><path d="M72.6 104.4S-1.6 101.1 0 0c0 0 68.2 9.9 72.6 104.4z" fill="#ba131a"/></svg>