<svg xmlns="http://www.w3.org/2000/svg" width="64" height="64" fill="#fff" xmlns:v="https://vecta.io/nano"><path d="M31.9 63.7C14.3 63.7 0 49.4 0 31.9S14.3 0 31.9 0s31.9 14.3 31.9 31.9-14.4 31.8-31.9 31.8zm0-56.5C18.3 7.2 7.2 18.3 7.2 31.9s11.1 24.7 24.7 24.7 24.7-11.1 24.7-24.7S45.5 7.2 31.9 7.2zm4.9 42.1c-.9 0-1.8-.4-2.5-1L21.7 35.5h-1.1l-.9-2.1c-.7-2.1.7-3.7 1.3-4.4.4-.4.9-1 1.7-1.7l4.9-4.9 7.2-7c1.4-1.3 3.5-1.3 4.8.1s1.3 3.5-.1 4.8L27.8 31.8l4.7 4.8 6.7 6.9c1.3 1.4 1.3 3.5-.1 4.8-.6.7-1.4 1-2.3 1z"/></svg>