<svg xmlns="http://www.w3.org/2000/svg" width="64" height="64" fill="#fff" xmlns:v="https://vecta.io/nano"><path d="M0 31.9C0 14.3 14.3 0 31.9 0s31.9 14.3 31.9 31.9-14.4 31.8-31.9 31.8S0 49.4 0 31.9zm7.2 0c0 13.6 11.1 24.7 24.7 24.7s24.7-11.1 24.7-24.7S45.5 7.2 31.9 7.2 7.2 18.3 7.2 31.9zm19.7 17.4c.9 0 1.8-.4 2.5-1L42 35.5h1.1l.9-2.1c.8-2.1-.6-3.6-1.2-4.3-.4-.4-.9-1-1.7-1.7l-4.9-4.9-7.2-7c-1.4-1.3-3.5-1.3-4.8.1s-1.3 3.5.1 4.8c4.4 4.2 9.1 8.8 11.7 11.5l-4.7 4.8-6.7 6.9c-1.3 1.4-1.3 3.5.1 4.8.5.6 1.4.9 2.2.9z"/></svg>