<svg xmlns="http://www.w3.org/2000/svg" width="56" height="56" fill="none" xmlns:v="https://vecta.io/nano"><path d="M55.161 28.462C55.161 13.239 42.886.941 27.693.941S.299 13.314.299 28.462c0 13.723 10.029 25.122 23.202 27.147V36.411h-7.035v-7.949h6.961v-6.074c0-6.899 4.116-10.724 10.404-10.724 2.994 0 6.137.525 6.137.525v6.749h-3.443c-3.443 0-4.491 2.1-4.491 4.274v5.174h7.634l-1.197 7.949h-6.362v19.197c13.023-1.95 23.052-13.348 23.052-27.071z" fill="#3279be"/><path d="M38.396 36.412l1.198-7.949h-7.559v-5.174c0-2.175 1.048-4.274 4.491-4.274h3.443v-6.749s-3.143-.525-6.137-.525c-6.287 0-10.404 3.825-10.404 10.724v6.074h-6.961v7.949h6.961v19.197c1.422.225 2.844.3 4.266.3s2.919-.15 4.266-.3V36.487h6.437v-.075z" fill="#fff"/></svg>