<svg xmlns="http://www.w3.org/2000/svg" width="56" height="56" fill="none" xmlns:v="https://vecta.io/nano"><path d="M27.618 55.343c15.253 0 27.618-12.389 27.618-27.671S42.871 0 27.618 0 0 12.389 0 27.671s12.365 27.671 27.618 27.671z" fill="url(#A)"/><path d="M36.15 20.997c1.033 0 1.871-.839 1.871-1.875s-.838-1.875-1.871-1.875-1.871.839-1.871 1.875.838 1.875 1.871 1.875zm-8.457-1.349c-4.416 0-7.934 3.599-7.934 7.949a7.95 7.95 0 0 0 7.934 7.949c4.341 0 7.934-3.6 7.934-7.949.075-4.424-3.518-7.949-7.934-7.949zm0 13.048c-2.844 0-5.089-2.325-5.089-5.099a5.1 5.1 0 0 1 5.089-5.099c2.844 0 5.09 2.325 5.09 5.099.075 2.85-2.245 5.099-5.09 5.099zm6.362 11.098H21.106a9.72 9.72 0 0 1-9.73-9.749V21.147a9.72 9.72 0 0 1 9.73-9.749h12.948a9.72 9.72 0 0 1 9.73 9.749V34.12c0 5.324-4.341 9.674-9.73 9.674zM21.106 14.473c-3.667 0-6.661 3-6.661 6.674V34.12c0 3.675 2.994 6.674 6.661 6.674h12.948c3.667 0 6.661-3 6.661-6.674V21.147c0-3.675-2.994-6.674-6.661-6.674H21.106z" fill="#fff"/><defs><linearGradient id="A" x1="1.746" y1="5.774" x2="57.009" y2="52.359" gradientUnits="userSpaceOnUse"><stop offset=".001" stop-color="#ffe187"/><stop offset=".209" stop-color="#fdb944"/><stop offset=".377" stop-color="#f05577"/><stop offset=".524" stop-color="#ed3995"/><stop offset=".739" stop-color="#8e509f"/><stop offset="1" stop-color="#5e5da9"/></linearGradient></defs></svg>