<svg width="516" height="337" viewBox="0 0 516 337" fill="none" xmlns="http://www.w3.org/2000/svg">
<g clip-path="url(#clip0)">
<path d="M469.1 244.8C494.56 244.8 515.2 224.16 515.2 198.7C515.2 173.24 494.56 152.6 469.1 152.6C443.64 152.6 423 173.24 423 198.7C423 224.16 443.64 244.8 469.1 244.8Z" fill="#820000"/>
<path d="M469.1 337C494.56 337 515.2 316.36 515.2 290.9C515.2 265.44 494.56 244.8 469.1 244.8C443.64 244.8 423 265.44 423 290.9C423 316.36 443.64 337 469.1 337Z" fill="#BA131A"/>
<path d="M376.8 244.8C402.26 244.8 422.9 224.16 422.9 198.7C422.9 173.24 402.26 152.6 376.8 152.6C351.34 152.6 330.7 173.24 330.7 198.7C330.7 224.16 351.34 244.8 376.8 244.8Z" fill="#94070A"/>
<path d="M330.8 337H406C415.4 337 423 329.4 423 320V261.8C423 252.4 415.4 244.8 406 244.8H347.8C338.4 244.8 330.8 252.4 330.8 261.8V337Z" fill="#ED1C24"/>
<path d="M165.23 336.954H330.53V171.654L165.23 171.654L165.23 336.954Z" fill="#D1D3D4"/>
<path d="M330.6 318.6L248.6 244.5L165.3 318.6V337H330.6V318.6Z" fill="white"/>
<path d="M330.6 337L247.9 261.6L165.3 337H330.6Z" fill="#77787B"/>
<path d="M165.3 318.6L330.6 171.7H165.3V318.6Z" fill="#BA131A"/>
<path d="M82.9 172.2C128.4 172.2 165.3 209.1 165.3 254.6V337H82.9C37.4 337 0.5 300.1 0.5 254.6L0 172.2H82.9Z" fill="#77787B"/>
<path d="M117.2 241C143.7 241 165.2 262.5 165.2 289V337H117.2C90.7 337 69.2 315.5 69.2 289C69.2 262.5 90.7 241 117.2 241Z" fill="#ED1C24"/>
<path d="M79.5 290.7C104.684 290.7 125.1 270.284 125.1 245.1C125.1 219.916 104.684 199.5 79.5 199.5C54.3158 199.5 33.9 219.916 33.9 245.1C33.9 270.284 54.3158 290.7 79.5 290.7Z" fill="white"/>
<path d="M79.5 274.3C95.6268 274.3 108.7 261.227 108.7 245.1C108.7 228.973 95.6268 215.9 79.5 215.9C63.3733 215.9 50.3 228.973 50.3 245.1C50.3 261.227 63.3733 274.3 79.5 274.3Z" fill="#77787B"/>
<path d="M111.9 158.1C151.72 158.1 184 125.82 184 86C184 46.1803 151.72 13.9 111.9 13.9C72.0803 13.9 39.8 46.1803 39.8 86C39.8 125.82 72.0803 158.1 111.9 158.1Z" fill="#D1D3D4"/>
<path d="M223.7 83.3C223.7 83.3 219.9 -1.9 103.8 1.18464e-06C103.9 1.18464e-06 115.2 78.3 223.7 83.3Z" fill="#ED1C24"/>
<path d="M223.7 88.9C223.7 88.9 219.9 174.1 103.8 172.2C103.9 172.2 115.2 94 223.7 88.9Z" fill="#BA131A"/>
<path d="M119.9 83.3C119.9 83.3 116.1 -1.9 0 1.18464e-06C0 1.18464e-06 11.4 78.3 119.9 83.3Z" fill="#ED1C24"/>
<path d="M119.9 88.9C119.9 88.9 116.1 174.1 0 172.2C0 172.2 11.4 94 119.9 88.9Z" fill="#BA131A"/>
</g>
<defs>
<clipPath id="clip0">
<rect width="515.2" height="337" fill="white"/>
</clipPath>
</defs>
</svg>
