<svg width="212" height="109" viewBox="0 0 212 109" fill="none" xmlns="http://www.w3.org/2000/svg">
<g clip-path="url(#clip0)">
<path d="M80.3 54.2C95.2669 54.2 107.4 42.0669 107.4 27.1C107.4 12.1331 95.2669 0 80.3 0C65.333 0 53.2 12.1331 53.2 27.1C53.2 42.0669 65.333 54.2 80.3 54.2Z" fill="white"/>
<path d="M80.3 108.4C95.2669 108.4 107.4 96.2669 107.4 81.3C107.4 66.3331 95.2669 54.2 80.3 54.2C65.333 54.2 53.2 66.3331 53.2 81.3C53.2 96.2669 65.333 108.4 80.3 108.4Z" fill="#D1D3D4"/>
<path d="M26.1 54.2C41.0669 54.2 53.2 42.0669 53.2 27.1C53.2 12.1331 41.0669 0 26.1 0C11.1331 0 -1 12.1331 -1 27.1C-1 42.0669 11.1331 54.2 26.1 54.2Z" fill="#606161"/>
<path d="M-1 108.4H44.2C49.2 108.4 53.2 104.4 53.2 99.4V63.2C53.2 58.2 49.2 54.2 44.2 54.2H8C3 54.2 -1 58.2 -1 63.2V108.4Z" fill="white"/>
<path d="M160 104.5C188.498 104.5 211.6 81.3979 211.6 52.9C211.6 24.4021 188.498 1.3 160 1.3C131.502 1.3 108.4 24.4021 108.4 52.9C108.4 81.3979 131.502 104.5 160 104.5Z" fill="#D1D3D4"/>
<path d="M160 92.7C181.981 92.7 199.8 74.8809 199.8 52.9C199.8 30.9191 181.981 13.1 160 13.1C138.019 13.1 120.2 30.9191 120.2 52.9C120.2 74.8809 138.019 92.7 160 92.7Z" fill="#606161"/>
<path d="M160 76.1C172.813 76.1 183.2 65.713 183.2 52.9C183.2 40.087 172.813 29.7 160 29.7C147.187 29.7 136.8 40.087 136.8 52.9C136.8 65.713 147.187 76.1 160 76.1Z" fill="white"/>
</g>
<defs>
<clipPath id="clip0">
<rect width="212.6" height="108.4" fill="white" transform="translate(-1)"/>
</clipPath>
</defs>
</svg>
