<svg xmlns="http://www.w3.org/2000/svg" width="418" height="141" fill="none" xmlns:v="https://vecta.io/nano"><path d="M247.107 70.5c19.491 0 35.292-15.782 35.292-35.25S266.598 0 247.107 0s-35.291 15.782-35.291 35.25 15.8 35.25 35.291 35.25z" fill="#820000"/><path d="M247.107 141c19.491 0 35.292-15.782 35.292-35.25S266.598 70.5 247.107 70.5s-35.291 15.782-35.291 35.25 15.8 35.25 35.291 35.25z" fill="#ba131a"/><path d="M176.524 70.5c19.491 0 35.292-15.782 35.292-35.25S196.015 0 176.524 0s-35.291 15.782-35.291 35.25 15.8 35.25 35.291 35.25z" fill="#94070a"/><path d="M141.233 140.967h62.851c4.266 0 7.699-3.429 7.699-7.689V78.189c0-4.261-3.433-7.689-7.699-7.689h-55.153c-4.266 0-7.698 3.428-7.698 7.689v62.778z" fill="#ed1c24"/><path d="M70.417.166C31.526.166 0 31.655 0 70.5v70.334h70.417c38.891 0 70.417-31.489 70.417-70.334l.433-70.334H70.417z" fill="#77787b"/><path d="M70.417 29.658c-22.595 0-40.89 18.274-40.89 40.842v40.842h40.89c22.595 0 40.89-18.274 40.89-40.842s-18.296-40.842-40.89-40.842z" fill="#fff"/><path d="M100.376 81.851c22.595 0 40.89-18.274 40.89-40.842V.166h-40.89c-22.595 0-40.89 18.274-40.89 40.842-.033 22.568 18.296 40.842 40.89 40.842z" fill="#ed1c24"/><path d="M350.783 135.907c37.123 0 67.217-30.059 67.217-67.138S387.906 1.631 350.783 1.631s-67.218 30.059-67.218 67.138 30.095 67.138 67.218 67.138z" fill="#d1d3d4"/><path d="M350.783 120.496c28.601 0 51.787-23.159 51.787-51.727s-23.186-51.727-51.787-51.727-51.788 23.159-51.788 51.727 23.186 51.727 51.788 51.727z" fill="#ed1c24"/><path d="M350.783 98.96c16.693 0 30.226-13.517 30.226-30.19s-13.533-30.19-30.226-30.19-30.226 13.517-30.226 30.19 13.532 30.191 30.226 30.191z" fill="#fff"/></svg>