<svg width="453" height="349" viewBox="0 0 453 349" fill="none" xmlns="http://www.w3.org/2000/svg">
<g clip-path="url(#clip0)">
<path d="M226.4 320C306.978 320 372.3 254.678 372.3 174.1C372.3 93.5216 306.978 28.2 226.4 28.2C145.822 28.2 80.5 93.5216 80.5 174.1C80.5 254.678 145.822 320 226.4 320Z" fill="#D1D3D4"/>
<path d="M452.9 168.6C452.9 168.6 445.2 -3.8001 210.2 -0.000103243C210.2 0.0998968 233.2 158.4 452.9 168.6Z" fill="#ED1C24"/>
<path d="M452.9 179.9C452.9 179.9 445.2 352.3 210.2 348.5C210.2 348.5 233.2 190.2 452.9 179.9Z" fill="#BA131A"/>
<path d="M242.7 168.6C242.7 168.6 235 -3.8001 0 -0.000103243C0 0.0998968 23 158.4 242.7 168.6Z" fill="#ED1C24"/>
<path d="M242.7 179.9C242.7 179.9 235 352.3 0 348.5C0 348.5 23 190.2 242.7 179.9Z" fill="#BA131A"/>
</g>
<defs>
<clipPath id="clip0">
<rect width="452.9" height="348.6" fill="white"/>
</clipPath>
</defs>
</svg>
