<svg width="410" height="982" viewBox="0 0 410 982" fill="none" xmlns="http://www.w3.org/2000/svg">
<g clip-path="url(#clip0)">
<path d="M204.9 195.2C204.9 195.2 96.4 190.4 98.9 42.6C98.8 42.5 198.4 57 204.9 195.2Z" fill="#820000"/>
<path d="M204.9 195.2C204.9 195.2 313.4 190.4 310.9 42.6C310.9 42.5 211.3 57 204.9 195.2Z" fill="white"/>
<path d="M409.7 432.1C409.7 545.2 318 637 204.8 637C91.7 636.9 0 545.2 0 432.1H409.7Z" fill="#B1B3B6"/>
<path d="M204.9 432.1C204.9 432.1 18.0001 423.8 22.2001 169.1C22.1001 169.1 193.8 194 204.9 432.1Z" fill="white"/>
<path d="M204.9 432.1C204.9 432.1 391.8 423.8 387.6 169.1C387.6 169.1 215.9 194 204.9 432.1Z" fill="#820000"/>
<path d="M204.9 49C218.431 49 229.4 38.031 229.4 24.5C229.4 10.969 218.431 0 204.9 0C191.369 0 180.4 10.969 180.4 24.5C180.4 38.031 191.369 49 204.9 49Z" fill="white"/>
<path d="M205.1 707.8C129.4 707.8 68 769.1 68 844.8V981.9H205.1C280.8 981.9 342.2 920.5 342.2 844.8L343 707.7H205.1V707.8Z" fill="#77787B"/>
<path d="M205.1 765.2C161.1 765.2 125.5 800.8 125.5 844.8V924.4H205.1C249.1 924.4 284.7 888.8 284.7 844.8C284.7 800.9 249.1 765.2 205.1 765.2Z" fill="white"/>
<path d="M263.4 867C307.4 867 343 831.4 343 787.4V707.8H263.4C219.4 707.8 183.8 743.4 183.8 787.4C183.8 831.3 219.4 867 263.4 867Z" fill="#ED1C24"/>
<path d="M136.3 569.9C174.352 569.9 205.2 539.052 205.2 501C205.2 462.948 174.352 432.1 136.3 432.1C98.2475 432.1 67.3999 462.948 67.3999 501C67.3999 539.052 98.2475 569.9 136.3 569.9Z" fill="#820000"/>
<path d="M136.3 707.7C174.352 707.7 205.2 676.852 205.2 638.8C205.2 600.748 174.352 569.9 136.3 569.9C98.2475 569.9 67.3999 600.748 67.3999 638.8C67.3999 676.852 98.2475 707.7 136.3 707.7Z" fill="white"/>
<path d="M274.1 569.9C312.152 569.9 343 539.052 343 501C343 462.948 312.152 432.1 274.1 432.1C236.048 432.1 205.2 462.948 205.2 501C205.2 539.052 236.048 569.9 274.1 569.9Z" fill="#94070A"/>
<path d="M343 707.7H230.8C216.7 707.7 205.2 696.2 205.2 682.1V595.5C205.2 581.4 216.7 569.9 230.8 569.9H317.4C331.5 569.9 343 581.4 343 595.5V707.7Z" fill="white"/>
</g>
<defs>
<clipPath id="clip0">
<rect width="409.7" height="981.9" fill="white"/>
</clipPath>
</defs>
</svg>
