<svg xmlns="http://www.w3.org/2000/svg" width="68" height="69" fill="none" xmlns:v="https://vecta.io/nano"><path d="M33.7 68.2c18.612 0 33.7-15.088 33.7-33.7S52.312.8 33.7.8 0 15.888 0 34.5s15.088 33.7 33.7 33.7z" fill="#ed1c24"/><path d="M44.218 26.343a2.361 2.361 0 0 0 0-4.722 2.361 2.361 0 1 0 0 4.722zm-10.303-1.502a9.62 9.62 0 0 0-9.659 9.659 9.62 9.62 0 0 0 9.659 9.659 9.62 9.62 0 0 0 9.659-9.659c.215-5.366-4.293-9.659-9.659-9.659zm0 15.884A6.23 6.23 0 0 1 27.69 34.5a6.23 6.23 0 0 1 6.225-6.225A6.23 6.23 0 0 1 40.14 34.5a6.23 6.23 0 0 1-6.225 6.225zm7.727 13.523H25.758c-6.654 0-11.806-5.366-11.806-11.806V26.558c0-6.654 5.366-11.806 11.806-11.806h15.884c6.654 0 11.806 5.366 11.806 11.806v15.884c.215 6.44-5.152 11.806-11.806 11.806zM25.973 18.402c-4.508 0-8.157 3.649-8.157 8.157v15.884c0 4.508 3.649 8.157 8.157 8.157h15.884c4.508 0 8.157-3.649 8.157-8.157V26.558c0-4.508-3.649-8.157-8.157-8.157H25.973z" fill="#fff"/></svg>