<svg xmlns="http://www.w3.org/2000/svg" width="68" height="69" fill="none" xmlns:v="https://vecta.io/nano"><path d="M67.4 34.486A33.62 33.62 0 0 0 33.7.786 33.62 33.62 0 0 0 0 34.486c0 16.743 12.235 30.91 28.548 33.271V44.145h-8.586v-9.659h8.586v-7.513c0-8.371 4.937-13.094 12.664-13.094 3.649 0 7.513.644 7.513.644v8.371h-4.293c-4.293 0-5.581 2.576-5.581 5.366v6.225h9.445l-1.503 9.659h-7.942v23.611C55.165 65.396 67.4 51.444 67.4 34.486z" fill="#ed1c24"/><path d="M46.794 44.361l1.503-9.659h-9.445v-6.225c0-2.576 1.288-5.366 5.581-5.366h4.293v-8.371s-3.864-.644-7.513-.644c-7.727 0-12.664 4.722-12.664 13.094v7.513h-8.586v9.659h8.586v23.612c1.717.215 3.434.429 5.366.429 1.717 0 3.649-.215 5.366-.429V44.361h7.513z" fill="#fff"/></svg>