<svg xmlns="http://www.w3.org/2000/svg" width="70" height="70" fill="none" xmlns:v="https://vecta.io/nano"><path d="M34.6 69.2c19.109 0 34.6-15.491 34.6-34.6S53.709 0 34.6 0 0 15.491 0 34.6s15.491 34.6 34.6 34.6z" fill="#ed1c24"/><path d="M53.231 29.721c0-4.658-3.77-8.428-8.428-8.428H23.51c-4.658 0-8.428 3.77-8.428 8.428v9.981c0 4.658 3.77 8.428 8.428 8.428h21.292c4.658 0 8.428-3.771 8.428-8.428v-9.981zm-12.642 5.545l-9.537 4.658c-.444.222-1.553 0-1.553-.444v-9.759c0-.444 1.331-.665 1.553-.444l9.093 4.879c.444.444.887.887.444 1.109z" fill="#fff"/></svg>