<svg xmlns="http://www.w3.org/2000/svg" width="68" height="69" fill="none" xmlns:v="https://vecta.io/nano"><path d="M33.75 68.4c18.64 0 33.75-15.11 33.75-33.75S52.39.9 33.75.9 0 16.011 0 34.65 15.11 68.4 33.75 68.4z" fill="#ed1c24"/><path d="M14.495 17.776l15.577 17.74c.865 1.082 2.164 1.514 3.461 1.514s2.596-.649 3.462-1.514l15.577-17.308c.216-.216.433-.216.433-.433-.649-.216-1.298-.433-2.163-.433h-34.4c-.649 0-1.298.216-1.947.433zm40.89 2.163c0 .216-.216.433-.216.433L39.808 37.896c-1.514 1.731-3.678 2.813-6.058 2.813s-4.543-1.082-6.058-2.812L12.115 19.939v-.216c-.433.865-.865 1.731-.865 2.813V46.55c0 3.029 2.38 5.409 5.409 5.409h34.399c3.029 0 5.409-2.38 5.409-5.409V22.752c-.216-1.082-.433-2.163-1.082-2.812z" fill="#fff"/></svg>