<svg xmlns="http://www.w3.org/2000/svg" width="417" height="600" fill="none" xmlns:v="https://vecta.io/nano"><path d="M417.1 599.6H292.5C131 599.6 0 468.7 0 307.1V0H417.1V599.6Z" fill="#eb242c"/><path d="M75.2 148.8H110l48.1 66v-66h34.8v123.3h-34.8L110 206v66H75.2V148.8zm174.1 31v13.8H308v31h-58.7V241h64.4v31h-99.2V148.8h99.2v31h-64.4zM74.5 286H112l15.1 71.2L151 286h37.5l23.7 71.2 15.1-71.2h37.5l-34.1 123.3h-35.2L169.8 338 144 409.3h-35.2L74.5 286zm193.1 104.6l19.4-23.2c12.6 9.9 26.2 15.1 40.7 15.1 9.5 0 14.5-3.2 14.5-8.6 0-5.9-4.3-6.8-21.4-10.8-26.7-6.1-47.4-13.1-47.4-38.8 0-24.6 19.4-40.6 48.6-40.6 21.4 0 38 5.7 51.7 16.7L356.3 325c-11.5-8.3-24-12.4-35.2-12.4-8.4 0-12.6 3.4-12.6 8.1 0 6.3 4.3 8.3 21.9 12 28.7 6.1 46.7 13.8 46.7 37.3 0 26-19.9 41.3-50.8 41.3-22.1.1-43.1-6.9-58.7-20.7z" fill="#fff"/></svg>