<svg width="523" height="626" viewBox="0 0 523 626" fill="none" xmlns="http://www.w3.org/2000/svg">
<path d="M0 626H129.947C298.378 626 435 489.232 435 320.621V0H0V626Z" fill="#EB242C"/>
<g clip-path="url(#clip0)">
<path d="M183.7 193H148V162.6H253.4V193H217.8V283.3H183.7V193Z" fill="white"/>
<path d="M358.7 192.5V283.4H324.8V274.3C319.2 281.3 310 285.5 299.1 285.5C279.6 285.5 265.7 270.9 265.7 250.4V192.5H298V242.4C298 251.2 303.6 257.3 311.7 257.3C319.3 257.3 324.7 251.5 324.7 243.4V192.4H358.7V192.5Z" fill="white"/>
<path d="M358.2 310.4L361.4 286C363.5 286.9 366.8 287.4 369.7 287.4C374.3 287.4 377.4 283.5 377.4 278.1V192.5H411.3V282.3C411.3 301.3 397.9 314.6 379 314.6C371.7 314.6 363.1 312.8 358.2 310.4ZM377 165.2C377 156.1 384.7 148 394.6 148C404.1 148 411.8 156.1 411.8 165.2C411.8 174.7 404.1 182.8 394.6 182.8C384.7 182.8 377 174.7 377 165.2Z" fill="white"/>
<path d="M522.5 192.5V283.4H488.6V274.3C483 281.3 473.8 285.5 462.9 285.5C443.4 285.5 429.5 270.9 429.5 250.4V192.5H461.8V242.4C461.8 251.2 467.4 257.3 475.5 257.3C483.1 257.3 488.5 251.5 488.5 243.4V192.4H522.5V192.5Z" fill="white"/>
<path d="M348.3 368.5V422.1H315.8V415.6C309.6 421.2 301 424.2 292.4 424.2C272.9 424.2 257.4 412.2 257.4 395.2C257.4 377.5 274.6 365 296.6 365C302.6 365 309.3 366.4 315.8 369V368.5C315.8 359.5 307.7 354.3 297.2 354.3C288.6 354.3 282.8 356.6 275.2 360.5L264.8 339.9C277.5 333.6 291 329.2 306.3 329.2C329.3 329.1 348.3 343.7 348.3 368.5ZM315.8 395.2V386.6C312.6 385 306.7 383.8 301.4 383.8C294.5 383.8 289.6 388.2 289.6 394.3C289.6 400.1 294.2 404.1 300.7 404.1C308.7 404.1 315.1 400.4 315.8 395.2Z" fill="white"/>
<path d="M458.5 364.2V422H426.2V372.1C426.2 363.3 420.6 357.2 412.5 357.2C404.9 357.2 399.5 363 399.5 371.1V422.1H365.6V331.2H399.5V340.3C405.1 333.3 414.3 329.1 425.2 329.1C444.6 329.1 458.5 343.7 458.5 364.2Z" fill="white"/>
</g>
<defs>
<clipPath id="clip0">
<rect width="374.5" height="276.2" fill="white" transform="translate(148 148)"/>
</clipPath>
</defs>
</svg>
