<svg xmlns="http://www.w3.org/2000/svg" width="56" height="56" fill="none" xmlns:v="https://vecta.io/nano"><path d="M27.618 56c15.253 0 27.618-12.389 27.618-27.671S42.871.657 27.618.657 0 13.046 0 28.329 12.365 56 27.618 56z" fill="#ee2e30"/><path d="M42.362 24.354c0-3.674-2.994-6.674-6.661-6.674H18.786c-3.667 0-6.661 3-6.661 6.674v7.874c0 3.674 2.994 6.674 6.661 6.674h16.915c3.667 0 6.661-3 6.661-6.674v-7.874zm-9.954 4.574l-7.634 3.75c-.299.15-1.347-.075-1.347-.375v-7.724c0-.375 1.048-.525 1.347-.375l7.26 3.974c.374.15.674.6.374.75z" fill="#fff"/></svg>